<svg width="500" height="300" viewBox="0 0 500 300" fill="none" xmlns="http://www.w3.org/2000/svg">
<rect width="500" height="300" rx="20" fill="#222222"/>
<path d="M138.651 171.5V127.148H149.147V171.5H138.651ZM161.563 127.148H172.571L160.027 147.052L173.787 171.5H161.691L149.467 147.82L161.563 127.148ZM206.338 161.708C206.338 162.945 206.509 163.863 206.85 164.46C207.191 165.057 207.767 165.505 208.578 165.804L206.466 172.46C204.418 172.247 202.711 171.799 201.346 171.116C199.981 170.391 198.914 169.345 198.146 167.98C196.866 169.473 195.245 170.625 193.282 171.436C191.319 172.204 189.229 172.588 187.01 172.588C183.511 172.588 180.717 171.607 178.626 169.644C176.535 167.639 175.49 165.057 175.49 161.9C175.49 158.231 176.941 155.393 179.842 153.388C182.743 151.34 186.818 150.316 192.066 150.316H196.61V149.1C196.61 145.601 194.37 143.852 189.89 143.852C188.738 143.852 187.287 144.023 185.538 144.364C183.831 144.663 182.167 145.089 180.546 145.644L178.242 138.924C180.418 138.113 182.679 137.495 185.026 137.068C187.415 136.599 189.57 136.364 191.49 136.364C201.389 136.364 206.338 140.375 206.338 148.396V161.708ZM190.466 165.356C191.618 165.356 192.77 165.036 193.922 164.396C195.117 163.713 196.013 162.796 196.61 161.644V156.076H194.114C188.653 156.076 185.922 157.783 185.922 161.196C185.922 162.519 186.306 163.543 187.074 164.268C187.885 164.993 189.015 165.356 190.466 165.356ZM246.697 169.516C243.497 171.564 239.785 172.588 235.561 172.588C231.209 172.588 227.924 171.479 225.705 169.26C223.529 167.041 222.441 163.927 222.441 159.916V144.492H215.337V137.516H222.441V130.156L232.553 128.94V137.516H243.497L242.473 144.492H232.553V159.916C232.553 161.58 232.937 162.775 233.705 163.5C234.473 164.225 235.71 164.588 237.417 164.588C239.55 164.588 241.534 164.076 243.369 163.052L246.697 169.516ZM285.072 169.516C281.872 171.564 278.16 172.588 273.936 172.588C269.584 172.588 266.299 171.479 264.08 169.26C261.904 167.041 260.816 163.927 260.816 159.916V144.492H253.712V137.516H260.816V130.156L270.928 128.94V137.516H281.872L280.848 144.492H270.928V159.916C270.928 161.58 271.312 162.775 272.08 163.5C272.848 164.225 274.085 164.588 275.792 164.588C277.925 164.588 279.909 164.076 281.744 163.052L285.072 169.516ZM307.511 119.724C309.26 119.724 310.69 120.279 311.799 121.388C312.908 122.455 313.463 123.799 313.463 125.42C313.463 127.084 312.908 128.449 311.799 129.516C310.69 130.583 309.26 131.116 307.511 131.116C305.762 131.116 304.311 130.583 303.159 129.516C302.05 128.407 301.495 127.041 301.495 125.42C301.495 123.799 302.05 122.455 303.159 121.388C304.311 120.279 305.762 119.724 307.511 119.724ZM313.591 164.588H322.295V171.5H293.879V164.588H303.479V144.428H294.199V137.516H313.591V164.588ZM344.862 165.356C346.611 165.356 347.977 165.1 348.958 164.588C349.982 164.033 350.494 163.223 350.494 162.156C350.494 161.388 350.281 160.769 349.854 160.3C349.47 159.831 348.723 159.383 347.614 158.956C346.505 158.487 344.777 157.932 342.43 157.292C339.017 156.396 336.414 155.159 334.622 153.58C332.83 151.959 331.934 149.74 331.934 146.924C331.934 143.809 333.214 141.271 335.774 139.308C338.377 137.345 342.003 136.364 346.654 136.364C352.03 136.364 356.617 137.751 360.414 140.524L356.382 146.476C353.267 144.556 350.131 143.596 346.974 143.596C345.31 143.596 344.073 143.809 343.262 144.236C342.494 144.663 342.11 145.324 342.11 146.22C342.11 146.817 342.302 147.329 342.686 147.756C343.113 148.14 343.881 148.545 344.99 148.972C346.142 149.399 347.849 149.932 350.11 150.572C352.542 151.255 354.526 152.001 356.062 152.812C357.641 153.623 358.857 154.711 359.71 156.076C360.563 157.441 360.99 159.191 360.99 161.324C360.99 163.713 360.265 165.761 358.814 167.468C357.363 169.175 355.422 170.455 352.99 171.308C350.558 172.161 347.87 172.588 344.926 172.588C341.769 172.588 338.91 172.14 336.35 171.244C333.79 170.348 331.614 169.089 329.822 167.468L334.878 161.772C337.95 164.161 341.278 165.356 344.862 165.356Z" fill="#DDDDDD"/>
</svg>
